<?xml version="1.0" encoding="UTF-8" standalone="no"?>
<!-- Created with Inkscape (http://www.inkscape.org/) -->

<svg
   xmlns:dc="http://purl.org/dc/elements/1.1/"
   xmlns:cc="http://creativecommons.org/ns#"
   xmlns:rdf="http://www.w3.org/1999/02/22-rdf-syntax-ns#"
   xmlns:svg="http://www.w3.org/2000/svg"
   xmlns="http://www.w3.org/2000/svg"
   xmlns:xlink="http://www.w3.org/1999/xlink"
   xmlns:sodipodi="http://sodipodi.sourceforge.net/DTD/sodipodi-0.dtd"
   xmlns:inkscape="http://www.inkscape.org/namespaces/inkscape"
   width="43.236462mm"
   height="10.989233mm"
   viewBox="0 0 43.236462 10.989232"
   version="1.1"
   id="svg8"
   inkscape:version="0.92.4 (5da689c313, 2019-01-14)"
   sodipodi:docname="logo-dark.svg">
  <defs
     id="defs2">
    <linearGradient
       inkscape:collect="always"
       xlink:href="#linearGradient3207"
       id="linearGradient3209"
       x1="-71.402893"
       y1="187.71677"
       x2="-53.989956"
       y2="193.99086"
       gradientUnits="userSpaceOnUse" />
    <linearGradient
       inkscape:collect="always"
       id="linearGradient3207">
      <stop
         style="stop-color:#0079de;stop-opacity:1;"
         offset="0"
         id="stop3203" />
      <stop
         style="stop-color:#67baff;stop-opacity:0"
         offset="1"
         id="stop3205" />
    </linearGradient>
    <linearGradient
       inkscape:collect="always"
       xlink:href="#linearGradient3215"
       id="linearGradient3217"
       x1="98.308151"
       y1="136.54362"
       x2="98.085098"
       y2="131.33896"
       gradientUnits="userSpaceOnUse" />
    <linearGradient
       inkscape:collect="always"
       id="linearGradient3215">
      <stop
         style="stop-color:#006fcc;stop-opacity:1;"
         offset="0"
         id="stop3211" />
      <stop
         style="stop-color:#0061b2;stop-opacity:1"
         offset="1"
         id="stop3213" />
    </linearGradient>
    <linearGradient
       inkscape:collect="always"
       xlink:href="#linearGradient3210"
       id="linearGradient3212"
       x1="84.309769"
       y1="-213.42566"
       x2="73.391418"
       y2="-210.14404"
       gradientUnits="userSpaceOnUse" />
    <linearGradient
       inkscape:collect="always"
       id="linearGradient3210">
      <stop
         style="stop-color:#4caf26;stop-opacity:1;"
         offset="0"
         id="stop3206" />
      <stop
         style="stop-color:#4caf26;stop-opacity:0;"
         offset="1"
         id="stop3208" />
    </linearGradient>
    <linearGradient
       inkscape:collect="always"
       xlink:href="#linearGradient3223"
       id="linearGradient3225"
       x1="106.85291"
       y1="144.65112"
       x2="102.69495"
       y2="136.24622"
       gradientUnits="userSpaceOnUse" />
    <linearGradient
       inkscape:collect="always"
       id="linearGradient3223">
      <stop
         style="stop-color:#0061b2;stop-opacity:1;"
         offset="0"
         id="stop3219" />
      <stop
         style="stop-color:#0058a1;stop-opacity:1"
         offset="1"
         id="stop3221" />
    </linearGradient>
  </defs>
  <sodipodi:namedview
     id="base"
     pagecolor="#ffffff"
     bordercolor="#666666"
     borderopacity="1.0"
     inkscape:pageopacity="0.0"
     inkscape:pageshadow="2"
     inkscape:zoom="3.5599362"
     inkscape:cx="14.544355"
     inkscape:cy="37.649593"
     inkscape:document-units="mm"
     inkscape:current-layer="g841"
     showgrid="false"
     fit-margin-top="0"
     fit-margin-left="0"
     fit-margin-right="0"
     fit-margin-bottom="0"
     inkscape:window-width="1920"
     inkscape:window-height="1017"
     inkscape:window-x="-8"
     inkscape:window-y="-8"
     inkscape:window-maximized="1"
     inkscape:pagecheckerboard="true" />
  <metadata
     id="metadata5">
    <rdf:RDF>
      <cc:Work
         rdf:about="">
        <dc:format>image/svg+xml</dc:format>
        <dc:type
           rdf:resource="http://purl.org/dc/dcmitype/StillImage" />
        <dc:title></dc:title>
      </cc:Work>
    </rdf:RDF>
  </metadata>
  <g
     inkscape:label="Layer 1"
     inkscape:groupmode="layer"
     id="layer1"
     transform="translate(-25.326242,-176.34446)">
    <g
       id="g841"
       transform="matrix(0.15718938,0,0,0.15718938,-1.2661668,151.8932)"
       style="display:inline;stroke-width:6.36175299"
       inkscape:export-xdpi="300"
       inkscape:export-ydpi="300">
      <g
         id="g3404"
         transform="matrix(4.1325867,0,0,4.1325867,2424.3825,-944.32504)"
         style="stroke-width:1.53941202"
         inkscape:export-xdpi="300"
         inkscape:export-ydpi="300"
         inkscape:export-filename="D:\7400\2021\1 - IPDS\1- JRS\LOGO SYANTIK\Syantik\assets\img\logo-dark.png">
        <g
           transform="translate(0,0.26862947)"
           id="text3159"
           style="font-style:normal;font-variant:normal;font-weight:500;font-stretch:semi-expanded;font-size:13.70994186px;line-height:1.25;font-family:'Encode Sans SemiExpanded';-inkscape-font-specification:'Encode Sans SemiExpanded,  Medium Semi-Expanded';text-align:end;letter-spacing:-0.21284601px;direction:ltr;text-anchor:end;display:inline;opacity:1;fill:#006fcc;fill-opacity:1;stroke:none;stroke-width:1.53941202;stroke-linecap:square;stroke-linejoin:miter;stroke-miterlimit:4;stroke-dasharray:none;stroke-dashoffset:0;stroke-opacity:1;paint-order:normal"
           aria-label="Syantik">
          <path
             inkscape:connector-curvature="0"
             id="path3363"
             style="font-style:normal;font-variant:normal;font-weight:500;font-stretch:semi-expanded;font-family:'Encode Sans SemiExpanded';-inkscape-font-specification:'Encode Sans SemiExpanded,  Medium Semi-Expanded';letter-spacing:-0.21284601px;fill:#006fcc;fill-opacity:1;stroke-width:1.53941202"
             d="m -523.67936,278.92541 q -0.71977,0 -1.4464,-0.11653 -0.71977,-0.10968 -1.35728,-0.32219 v -1.2476 q 0.65808,0.21936 1.39841,0.33589 0.74719,0.11654 1.41213,0.11654 1.2476,0 1.83713,-0.41816 0.58953,-0.41815 0.58953,-1.23389 0,-0.45929 -0.19194,-0.75405 -0.18509,-0.30162 -0.61009,-0.50727 -0.42501,-0.20565 -1.1585,-0.37017 l -0.65807,-0.1508 q -1.43955,-0.31533 -2.12504,-1.00083 -0.6855,-0.6855 -0.6855,-1.81657 0,-0.91856 0.44557,-1.56979 0.44558,-0.65122 1.33672,-1.00082 0.898,-0.34961 2.2073,-0.34961 0.66493,0 1.29559,0.0891 0.63751,0.0823 1.1722,0.23992 v 1.24761 q -1.1105,-0.34275 -2.4198,-0.34275 -2.52949,0 -2.52949,1.61092 0,0.44557 0.16452,0.74719 0.17138,0.29476 0.55526,0.50041 0.39073,0.20565 1.06252,0.35646 l 0.65122,0.15081 q 1.56979,0.34275 2.2827,1.02825 0.71292,0.67864 0.71292,1.80971 0,0.93227 -0.46614,1.60406 -0.46614,0.66493 -1.35043,1.01454 -0.88429,0.3496 -2.12504,0.3496 z" />
          <path
             inkscape:connector-curvature="0"
             id="path3365"
             style="font-style:normal;font-variant:normal;font-weight:500;font-stretch:semi-expanded;font-family:'Encode Sans SemiExpanded';-inkscape-font-specification:'Encode Sans SemiExpanded,  Medium Semi-Expanded';letter-spacing:-0.21284601px;fill:#006fcc;fill-opacity:1;stroke-width:1.53941202"
             d="m -512.99923,271.33696 h 1.46697 l -4.18153,10.47439 h -1.46697 l 1.21333,-3.01618 h -0.39759 l -2.9682,-7.45821 h 1.56293 l 2.35811,6.23802 z" />
          <path
             inkscape:connector-curvature="0"
             id="path3367"
             style="font-style:normal;font-variant:normal;font-weight:500;font-stretch:semi-expanded;font-family:'Encode Sans SemiExpanded';-inkscape-font-specification:'Encode Sans SemiExpanded,  Medium Semi-Expanded';letter-spacing:-0.21284601px;fill:#006fcc;fill-opacity:1;stroke-width:1.53941202"
             d="m -508.41295,271.22042 q 1.11051,0 1.80971,0.2742 0.70606,0.2742 1.05567,0.90486 0.3496,0.63066 0.3496,1.70689 v 4.6888 h -1.23389 l -0.10968,-0.80889 h -0.0823 q -0.37703,0.44557 -0.97341,0.69235 -0.59638,0.23993 -1.28188,0.23993 -0.76776,0 -1.31615,-0.25364 -0.5484,-0.25363 -0.83631,-0.71977 -0.28791,-0.47299 -0.28791,-1.10365 0,-1.00083 0.70606,-1.54922 0.71292,-0.55526 2.26214,-0.69236 l 1.70004,-0.17137 v -0.40444 q 0,-0.63752 -0.21251,-0.99397 -0.20565,-0.36332 -0.63751,-0.50727 -0.42501,-0.15081 -1.13107,-0.15081 -0.49356,0 -1.06252,0.0823 -0.56896,0.0823 -1.08994,0.25363 v -1.14478 q 0.51412,-0.16452 1.15163,-0.25363 0.63752,-0.0891 1.22019,-0.0891 z m -0.0548,6.63561 q 0.50727,0 0.97341,-0.19193 0.47299,-0.19194 0.84316,-0.57582 v -1.75487 l -1.5835,0.15766 q -0.85002,0.0891 -1.22704,0.39073 -0.37702,0.29477 -0.37702,0.83631 0,0.5484 0.34274,0.84316 0.34275,0.29476 1.02825,0.29476 z" />
          <path
             inkscape:connector-curvature="0"
             id="path3369"
             style="font-style:normal;font-variant:normal;font-weight:500;font-stretch:semi-expanded;font-family:'Encode Sans SemiExpanded';-inkscape-font-specification:'Encode Sans SemiExpanded,  Medium Semi-Expanded';letter-spacing:-0.21284601px;fill:#006fcc;fill-opacity:1;stroke-width:1.53941202"
             d="m -503.38924,271.33696 h 1.22704 l 0.10282,0.82259 h 0.0823 q 0.48671,-0.45242 1.12422,-0.69235 0.64436,-0.24678 1.35043,-0.24678 1.23389,0 1.93995,0.69921 0.70607,0.69235 0.70607,2.17988 v 4.69566 h -1.48068 v -4.62711 q 0,-0.89115 -0.39759,-1.27502 -0.39073,-0.38388 -1.15163,-0.38388 -0.55525,0 -1.0968,0.21936 -0.54154,0.2125 -0.92542,0.65807 v 5.40858 h -1.48067 z" />
          <path
             inkscape:connector-curvature="0"
             id="path3371"
             style="font-style:normal;font-variant:normal;font-weight:500;font-stretch:semi-expanded;font-family:'Encode Sans SemiExpanded';-inkscape-font-specification:'Encode Sans SemiExpanded, Medium Semi-Expanded';letter-spacing:-0.21284601px;fill:#61bb2a;fill-opacity:1;stroke-width:1.53941202"
             d="m -491.52298,277.69152 q 0.40444,0 0.94598,-0.11654 v 1.19962 q -0.6238,0.15081 -1.3093,0.15081 -1.3093,0 -2.00165,-0.65122 -0.6855,-0.65122 -0.6855,-1.9948 v -3.74967 h -1.41212 v -1.19276 h 1.41212 l 0.26049,-2.68715 h 1.22019 v 2.68715 h 2.4198 v 1.19276 h -2.4198 v 3.49604 q 0,0.90485 0.37702,1.28873 0.38388,0.37703 1.19277,0.37703 z" />
          <path
             inkscape:connector-curvature="0"
             id="path3373"
             style="font-style:normal;font-variant:normal;font-weight:500;font-stretch:semi-expanded;font-family:'Encode Sans SemiExpanded';-inkscape-font-specification:'Encode Sans SemiExpanded, Medium Semi-Expanded';letter-spacing:-0.21284601px;fill:#61bb2a;fill-opacity:1;stroke-width:1.53941202"
             d="m -489.54267,278.79517 v -7.45821 h 1.48067 v 7.45821 z m 0.74034,-8.90461 q -0.47985,0 -0.72663,-0.21251 -0.23992,-0.21935 -0.23992,-0.61694 0,-0.40445 0.24677,-0.62381 0.24678,-0.21935 0.71978,-0.21935 0.47299,0 0.71977,0.21935 0.24678,0.21936 0.24678,0.62381 0,0.39759 -0.24678,0.61694 -0.23993,0.21251 -0.71977,0.21251 z" />
          <path
             inkscape:connector-curvature="0"
             id="path3375"
             style="font-style:normal;font-variant:normal;font-weight:500;font-stretch:semi-expanded;font-family:'Encode Sans SemiExpanded';-inkscape-font-specification:'Encode Sans SemiExpanded, Medium Semi-Expanded';letter-spacing:-0.21284601px;fill:#61bb2a;fill-opacity:1;stroke-width:1.53941202"
             d="m -480.80678,278.79517 -2.57061,-3.21499 h -1.3093 v 3.21499 h -1.48068 v -11.07764 h 1.48068 v 6.64932 h 1.29559 l 2.37867,-3.02989 h 1.62463 l -2.78312,3.60571 3.01619,3.8525 z" />
        </g>
        <g
           id="g3173"
           transform="matrix(0.45161593,0,0,0.45161593,-586.52537,213.50858)"
           style="font-style:normal;font-variant:normal;font-weight:normal;font-stretch:normal;font-size:3.19430566px;line-height:1.25;font-family:'Liberation Sans';-inkscape-font-specification:'Liberation Sans';text-align:start;letter-spacing:0px;direction:ltr;text-anchor:start;fill:#8cd330;fill-opacity:1;stroke:none;stroke-width:3.40867496;stroke-linecap:square;stroke-linejoin:miter;stroke-miterlimit:4;stroke-dasharray:none;stroke-dashoffset:0;stroke-opacity:1;paint-order:normal">
          <rect
             transform="matrix(0.86948821,-0.4939537,0.86948821,0.49395369,0,0)"
             y="179.4296"
             x="-75.496452"
             height="18.958622"
             width="18.958622"
             id="rect3161"
             style="opacity:1;fill:#0079de;fill-opacity:1;stroke:none;stroke-width:0.73557281;stroke-linecap:round;stroke-linejoin:round;stroke-miterlimit:4;stroke-dasharray:2.94229087, 2.94229087;stroke-dashoffset:0;stroke-opacity:1;paint-order:normal" />
          <path
             inkscape:connector-curvature="0"
             id="path3163"
             d="m 90.368645,135.28634 v -9.36468 l 16.484295,9.36468 v 9.36468 z"
             style="opacity:1;fill:#006fcc;fill-opacity:1;stroke:none;stroke-width:0.68173498;stroke-linecap:round;stroke-linejoin:round;stroke-miterlimit:4;stroke-dasharray:2.7269399, 2.7269399;stroke-dashoffset:0;stroke-opacity:1;paint-order:normal" />
          <rect
             style="opacity:1;fill:#8cd330;fill-opacity:1;stroke:none;stroke-width:0.73557281;stroke-linecap:round;stroke-linejoin:round;stroke-miterlimit:4;stroke-dasharray:2.94229087, 2.94229087;stroke-dashoffset:0;stroke-opacity:1;paint-order:normal"
             id="rect3165"
             width="18.958622"
             height="18.958622"
             x="75.496452"
             y="-217.34683"
             transform="matrix(-0.86948821,0.4939537,-0.86948821,-0.49395369,0,0)" />
          <path
             style="opacity:1;fill:#75be16;fill-opacity:1;stroke:none;stroke-width:0.68173498;stroke-linecap:round;stroke-linejoin:round;stroke-miterlimit:4;stroke-dasharray:2.7269399, 2.7269399;stroke-dashoffset:0;stroke-opacity:1;paint-order:normal"
             d="m 123.33724,135.28634 v 9.36468 l -16.4843,-9.36468 v -9.36467 z"
             id="path3167"
             inkscape:connector-curvature="0" />
          <path
             inkscape:connector-curvature="0"
             id="path3169"
             d="m 106.85291,135.28632 -8.241875,4.6824 8.241875,4.6824 z"
             style="opacity:1;fill:#0061b2;fill-opacity:1;stroke:none;stroke-width:0.68173498;stroke-linecap:round;stroke-linejoin:round;stroke-miterlimit:4;stroke-dasharray:2.7269399, 2.7269399;stroke-dashoffset:0;stroke-opacity:1;paint-order:normal" />
          <path
             inkscape:connector-curvature="0"
             id="path3171"
             d="m 106.85291,125.92151 v 9.36481 l 8.24187,-4.68241 z"
             style="opacity:1;fill:#62ad00;fill-opacity:1;stroke:none;stroke-width:0.68173498;stroke-linecap:round;stroke-linejoin:round;stroke-miterlimit:4;stroke-dasharray:2.7269399, 2.7269399;stroke-dashoffset:0;stroke-opacity:1;paint-order:normal" />
        </g>
        <g
           style="font-style:normal;font-variant:normal;font-weight:normal;font-stretch:normal;font-size:3.19430566px;line-height:1.25;font-family:'Liberation Sans';-inkscape-font-specification:'Liberation Sans';text-align:start;letter-spacing:0px;direction:ltr;text-anchor:start;fill:#8cd330;fill-opacity:1;stroke:none;stroke-width:3.40867496;stroke-linecap:square;stroke-linejoin:miter;stroke-miterlimit:4;stroke-dasharray:none;stroke-dashoffset:0;stroke-opacity:1;paint-order:normal"
           transform="matrix(0.45161593,0,0,0.45161593,-586.52537,213.50858)"
           id="g3187">
          <rect
             style="opacity:1;fill:url(#linearGradient3209);fill-opacity:1;stroke:none;stroke-width:0.73557281;stroke-linecap:round;stroke-linejoin:round;stroke-miterlimit:4;stroke-dasharray:2.94229087, 2.94229087;stroke-dashoffset:0;stroke-opacity:1;paint-order:normal"
             id="rect3175"
             width="18.958622"
             height="18.958622"
             x="-75.496452"
             y="179.4296"
             transform="matrix(0.86948821,-0.4939537,0.86948821,0.49395369,0,0)" />
          <path
             style="opacity:1;fill:url(#linearGradient3217);fill-opacity:1;stroke:none;stroke-width:0.68173498;stroke-linecap:round;stroke-linejoin:round;stroke-miterlimit:4;stroke-dasharray:2.7269399, 2.7269399;stroke-dashoffset:0;stroke-opacity:1;paint-order:normal"
             d="m 90.368645,135.28634 v -9.36468 l 16.484295,9.36468 v 9.36468 z"
             id="path3177"
             inkscape:connector-curvature="0" />
          <rect
             transform="matrix(-0.86948821,0.4939537,-0.86948821,-0.49395369,0,0)"
             y="-217.34683"
             x="75.496452"
             height="18.958622"
             width="18.958622"
             id="rect3179"
             style="opacity:1;fill:url(#linearGradient3212);fill-opacity:1;stroke:none;stroke-width:0.73557281;stroke-linecap:round;stroke-linejoin:round;stroke-miterlimit:4;stroke-dasharray:2.94229087, 2.94229087;stroke-dashoffset:0;stroke-opacity:1;paint-order:normal" />
          <path
             inkscape:connector-curvature="0"
             id="path3181"
             d="m 123.33724,135.28634 v 9.36468 l -16.4843,-9.36468 v -9.36467 z"
             style="opacity:1;fill:#55b528;fill-opacity:1;stroke:none;stroke-width:0.68173498;stroke-linecap:round;stroke-linejoin:round;stroke-miterlimit:4;stroke-dasharray:2.7269399, 2.7269399;stroke-dashoffset:0;stroke-opacity:1;paint-order:normal" />
          <path
             style="opacity:1;fill:url(#linearGradient3225);fill-opacity:1;stroke:none;stroke-width:0.68173498;stroke-linecap:round;stroke-linejoin:round;stroke-miterlimit:4;stroke-dasharray:2.7269399, 2.7269399;stroke-dashoffset:0;stroke-opacity:1;paint-order:normal"
             d="m 106.85291,135.28632 -8.241875,4.6824 8.241875,4.6824 z"
             id="path3183"
             inkscape:connector-curvature="0" />
          <path
             style="opacity:1;fill:#46aa19;fill-opacity:1;stroke:none;stroke-width:0.68173498;stroke-linecap:round;stroke-linejoin:round;stroke-miterlimit:4;stroke-dasharray:2.7269399, 2.7269399;stroke-dashoffset:0;stroke-opacity:1;paint-order:normal"
             d="m 106.85291,125.92151 v 9.36481 l 8.24187,-4.68241 z"
             id="path3185"
             inkscape:connector-curvature="0" />
        </g>
      </g>
    </g>
  </g>
</svg>
